<?xml version="1.0" encoding="utf-8" ?>
<!DOCTYPE svg PUBLIC "-//W3C//DTD SVG 1.1//EN" "http://www.w3.org/Graphics/SVG/1.1/DTD/svg11.dtd">
<svg height="1284" version="1.1" width="3422" xmlns="http://www.w3.org/2000/svg">
<rect fill="#ffffff" height="160" stroke="#ffffff" stroke-width="1" width="179" x="150" y="22"/>
<rect fill="none" height="160" stroke="#000000" stroke-width="1" width="179" x="150" y="22"/>
<text font-family="Dialog" font-size="12" x="217" y="36">
Jugador</text>
<rect fill="#000000" height="1" stroke="#000000" stroke-width="1" width="179" x="150" y="46"/>
<text font-family="Dialog" font-size="12" x="154" y="61">
Color : Boolean</text>
<text font-family="Dialog" font-size="12" x="154" y="78">
nombre : String</text>
<rect fill="#000000" height="1" stroke="#000000" stroke-width="1" width="179" x="150" y="88"/>
<text font-family="Dialog" font-size="12" x="154" y="103">
Jugador() : void</text>
<text font-family="Dialog" font-size="12" x="154" y="120">
Jugador(Boolean) : void</text>
<text font-family="Dialog" font-size="12" x="154" y="137">
getColor() : Boolean</text>
<text font-family="Dialog" font-size="12" x="154" y="154">
getNombre() : String</text>
<text font-family="Dialog" font-size="12" x="154" y="171">
getNextMove(Problema) : Pair</text>
<rect fill="#ffffff" height="168" stroke="#ffffff" stroke-width="1" width="170" x="14" y="222"/>
<rect fill="none" height="168" stroke="#000000" stroke-width="1" width="170" x="14" y="222"/>
<text font-family="Dialog" font-size="12" x="77" y="236">
Usuario</text>
<rect fill="#000000" height="1" stroke="#000000" stroke-width="1" width="170" x="14" y="246"/>
<text font-family="Dialog" font-size="12" x="18" y="261">
Password : String</text>
<rect fill="#000000" height="1" stroke="#000000" stroke-width="1" width="170" x="14" y="275"/>
<text font-family="Dialog" font-size="12" x="18" y="290">
Uusario() : void</text>
<text font-family="Dialog" font-size="12" x="18" y="307">
Usuario(boolean) : void</text>
<text font-family="Dialog" font-size="12" x="18" y="324">
Usuario(String,String) : void</text>
<text font-family="Dialog" font-size="12" x="18" y="341">
setContraseña(String) : void</text>
<text font-family="Dialog" font-size="12" x="18" y="358">
getContraseña() : String</text>
<text font-family="Dialog" font-size="12" x="18" y="375">
getNextMove(Problema) : Pair</text>
<rect fill="#ffffff" height="144" stroke="#ffffff" stroke-width="1" width="170" x="278" y="222"/>
<rect fill="none" height="144" stroke="#000000" stroke-width="1" width="170" x="278" y="222"/>
<text font-family="Dialog" font-size="12" x="339" y="236">
Máquina</text>
<rect fill="#000000" height="1" stroke="#000000" stroke-width="1" width="170" x="278" y="246"/>
<text font-family="Dialog" font-size="12" x="282" y="261">
d : int</text>
<rect fill="#000000" height="1" stroke="#000000" stroke-width="1" width="170" x="278" y="288"/>
<text font-family="Dialog" font-size="12" x="282" y="303">
Maquina() : void</text>
<text font-family="Dialog" font-size="12" x="282" y="320">
Maquina(Boolean,int) : void</text>
<text font-family="Dialog" font-size="12" x="282" y="337">
getNextMove(Problema) : Pair</text>
<rect fill="#ffffff" height="493" stroke="#ffffff" stroke-width="1" width="337" x="798" y="14"/>
<rect fill="none" height="493" stroke="#000000" stroke-width="1" width="337" x="798" y="14"/>
<text font-family="Dialog" font-size="12" x="947" y="28">
Partida</text>
<rect fill="#000000" height="1" stroke="#000000" stroke-width="1" width="337" x="798" y="38"/>
<text font-family="Dialog" font-size="12" x="802" y="53">
player1 : Jugador</text>
<text font-family="Dialog" font-size="12" x="802" y="70">
player2 : Jugador</text>
<text font-family="Dialog" font-size="12" x="802" y="87">
turno : boolean</text>
<text font-family="Dialog" font-size="12" x="802" y="104">
time : long</text>
<rect fill="#000000" height="1" stroke="#000000" stroke-width="1" width="337" x="798" y="127"/>
<text font-family="Dialog" font-size="12" x="802" y="142">
Partida() : void()</text>
<text font-family="Dialog" font-size="12" x="802" y="159">
Partida(player1,player2,Problema) : void</text>
<text font-family="Dialog" font-size="12" x="802" y="176">
Partida(player1,Maquina,Problema) : void</text>
<text font-family="Dialog" font-size="12" x="802" y="193">
Partida(Maquina,Maquina,Problema) : void</text>
<text font-family="Dialog" font-size="12" x="802" y="210">
actualizarRanking(String,double) : void</text>
<text font-family="Dialog" font-size="12" x="802" y="227">
getColor(Coordenada) : boolean</text>
<text font-family="Dialog" font-size="12" x="802" y="244">
playMaquinas(boolean) : void</text>
<text font-family="Dialog" font-size="12" x="802" y="261">
mover(boolean,String,String) : int</text>
<text font-family="Dialog" font-size="12" x="802" y="278">
playNProblemas(Problema)</text>
<text font-family="Dialog" font-size="12" x="802" y="295">
MoverFichaMaquina() : Pair</text>
<text font-family="Dialog" font-size="12" x="802" y="312">
checkMate(boolean) : boolean</text>
<text font-family="Dialog" font-size="12" x="802" y="329">
getNombreJugador1() : String</text>
<text font-family="Dialog" font-size="12" x="802" y="346">
getNombreJugador2() : String</text>
<text font-family="Dialog" font-size="12" x="802" y="363">
setProblema(Problema) : void</text>
<text font-family="Dialog" font-size="12" x="802" y="380">
getNumM() : int</text>
<text font-family="Dialog" font-size="12" x="802" y="397">
getProblema() : Problema</text>
<text font-family="Dialog" font-size="12" x="802" y="414">
posiblesMovimientos(Coordenada) : Arraylist&lt;Coordenada&gt;</text>
<text font-family="Dialog" font-size="12" x="802" y="431">
getNumMovimientos() : int</text>
<text font-family="Dialog" font-size="12" x="802" y="448">
getTurnoInicial() : boolean</text>
<text font-family="Dialog" font-size="12" x="802" y="465">
getPuntuacionM2() : int</text>
<text font-family="Dialog" font-size="12" x="802" y="482">
getPuntuacionM1() : int</text>
<rect fill="#ffffff" height="568" stroke="#ffffff" stroke-width="1" width="256" x="638" y="582"/>
<rect fill="none" height="568" stroke="#000000" stroke-width="1" width="256" x="638" y="582"/>
<text font-family="Dialog" font-size="12" x="739" y="596">
Problema</text>
<rect fill="#000000" height="1" stroke="#000000" stroke-width="1" width="256" x="638" y="606"/>
<text font-family="Dialog" font-size="12" x="642" y="621">
board : Matriz-Ficha-</text>
<text font-family="Dialog" font-size="12" x="642" y="638">
TurnoInicial : Boolean</text>
<text font-family="Dialog" font-size="12" x="642" y="655">
Rank : Ranking</text>
<text font-family="Dialog" font-size="12" x="642" y="672">
NumMovimientos : int</text>
<rect fill="#000000" height="1" stroke="#000000" stroke-width="1" width="256" x="638" y="699"/>
<text font-family="Dialog" font-size="12" x="642" y="714">
Problema() : void</text>
<text font-family="Dialog" font-size="12" x="642" y="731">
Problema(String) : void</text>
<text font-family="Dialog" font-size="12" x="642" y="748">
Problema(Boolean) : void</text>
<text font-family="Dialog" font-size="12" x="642" y="765">
Problema(int) : void</text>
<text font-family="Dialog" font-size="12" x="642" y="782">
getFicha(Coordena) : void</text>
<text font-family="Dialog" font-size="12" x="642" y="799">
setFicha(Coordena,Ficha)</text>
<text font-family="Dialog" font-size="12" x="642" y="816">
setTurno(Boolean) : void</text>
<text font-family="Dialog" font-size="12" x="642" y="833">
getTurno() : void</text>
<text font-family="Dialog" font-size="12" x="642" y="850">
setTurno() : void</text>
<text font-family="Dialog" font-size="12" x="642" y="867">
getNumMovimientos() : void</text>
<text font-family="Dialog" font-size="12" x="642" y="884">
setNumMovimientos(int) : Integer</text>
<text font-family="Dialog" font-size="12" x="642" y="901">
actualizarRanking(String,double) : void</text>
<text font-family="Dialog" font-size="12" x="642" y="918">
introducirElemento(String,double) : void</text>
<text font-family="Dialog" font-size="12" x="642" y="935">
eliminarUsuario(String) : void</text>
<text font-family="Dialog" font-size="12" x="642" y="952">
printTablero() : void</text>
<text font-family="Dialog" font-size="12" x="642" y="969">
matrixTofen() : string</text>
<text font-family="Dialog" font-size="12" x="642" y="986">
fenToMatrix(String) : void</text>
<text font-family="Dialog" font-size="12" x="642" y="1003">
moverFicha(String,String) : boolean</text>
<text font-family="Dialog" font-size="12" x="642" y="1020">
reomoveFicha(Coordena) : void</text>
<text font-family="Dialog" font-size="12" x="642" y="1037">
mate(boolean) : boolean</text>
<text font-family="Dialog" font-size="12" x="642" y="1054">
checkmate(boolean) : boolean</text>
<text font-family="Dialog" font-size="12" x="642" y="1071">
undoFicha(String,String,Ficha) : void</text>
<text font-family="Dialog" font-size="12" x="642" y="1088">
esValid(Coordena) : Boolean</text>
<text font-family="Dialog" font-size="12" x="642" y="1105">
convertirTablero() : char[][]</text>
<text font-family="Dialog" font-size="12" x="642" y="1122">
convertirMatrizFichas(char[][]) : void</text>
<rect fill="#ffffff" height="234" stroke="#ffffff" stroke-width="1" width="304" x="1702" y="310"/>
<rect fill="none" height="234" stroke="#000000" stroke-width="1" width="304" x="1702" y="310"/>
<text font-family="Dialog" font-size="12" font-style="italic" x="1839" y="324">
Ficha</text>
<rect fill="#000000" height="1" stroke="#000000" stroke-width="1" width="304" x="1702" y="334"/>
<text font-family="Dialog" font-size="12" x="1706" y="349">
color : Boolean</text>
<text font-family="Dialog" font-size="12" x="1706" y="366">
c : Character</text>
<rect fill="#000000" height="1" stroke="#000000" stroke-width="1" width="304" x="1702" y="387"/>
<text font-family="Dialog" font-size="12" x="1706" y="402">
Ficha() : void</text>
<text font-family="Dialog" font-size="12" x="1706" y="419">
Ficha(color,char) : void</text>
<text font-family="Dialog" font-size="12" x="1706" y="436">
posiblesMovimientos(Problema,Coordenada) : void</text>
<text font-family="Dialog" font-size="12" x="1706" y="453">
getPosicion() : void</text>
<text font-family="Dialog" font-size="12" x="1706" y="470">
setPosicion() : void()</text>
<text font-family="Dialog" font-size="12" x="1706" y="487">
getColor() : void</text>
<text font-family="Dialog" font-size="12" x="1706" y="504">
setColor(boolean) : void</text>
<text font-family="Dialog" font-size="12" x="1706" y="521">
getID() : character</text>
<rect fill="#ffffff" height="105" stroke="#ffffff" stroke-width="1" width="394" x="3014" y="598"/>
<rect fill="none" height="105" stroke="#000000" stroke-width="1" width="394" x="3014" y="598"/>
<text font-family="Dialog" font-size="12" x="3195" y="612">
Pawn</text>
<rect fill="#000000" height="1" stroke="#000000" stroke-width="1" width="394" x="3014" y="622"/>
<rect fill="#000000" height="1" stroke="#000000" stroke-width="1" width="394" x="3014" y="643"/>
<text font-family="Dialog" font-size="12" x="3018" y="658">
Pawn() : void</text>
<text font-family="Dialog" font-size="12" x="3018" y="675">
Pawn(boolean,char) : void</text>
<text font-family="Dialog" font-size="12" x="3018" y="692">
posiblesMovimientos(Problema,Coordenada) : Arraylist&lt;Coordenada&gt;</text>
<rect fill="#ffffff" height="105" stroke="#ffffff" stroke-width="1" width="394" x="974" y="598"/>
<rect fill="none" height="105" stroke="#000000" stroke-width="1" width="394" x="974" y="598"/>
<text font-family="Dialog" font-size="12" x="1152" y="612">
Queen</text>
<rect fill="#000000" height="1" stroke="#000000" stroke-width="1" width="394" x="974" y="622"/>
<rect fill="#000000" height="1" stroke="#000000" stroke-width="1" width="394" x="974" y="643"/>
<text font-family="Dialog" font-size="12" x="978" y="658">
Queen() : void</text>
<text font-family="Dialog" font-size="12" x="978" y="675">
Quenn(boolean,char)</text>
<text font-family="Dialog" font-size="12" x="978" y="692">
posiblesMovimientos(Problema,Coordenada) : Arraylist&lt;Coordenada&gt;</text>
<rect fill="#ffffff" height="105" stroke="#ffffff" stroke-width="1" width="394" x="1382" y="598"/>
<rect fill="none" height="105" stroke="#000000" stroke-width="1" width="394" x="1382" y="598"/>
<text font-family="Dialog" font-size="12" x="1566" y="612">
King</text>
<rect fill="#000000" height="1" stroke="#000000" stroke-width="1" width="394" x="1382" y="622"/>
<rect fill="#000000" height="1" stroke="#000000" stroke-width="1" width="394" x="1382" y="643"/>
<text font-family="Dialog" font-size="12" x="1386" y="658">
King() : void</text>
<text font-family="Dialog" font-size="12" x="1386" y="675">
King(boolean,char) : void</text>
<text font-family="Dialog" font-size="12" x="1386" y="692">
posiblesMovimientos(Problema,Coordenada) : Arraylist&lt;Coordenada&gt;</text>
<rect fill="#ffffff" height="105" stroke="#ffffff" stroke-width="1" width="394" x="1790" y="598"/>
<rect fill="none" height="105" stroke="#000000" stroke-width="1" width="394" x="1790" y="598"/>
<text font-family="Dialog" font-size="12" x="1967" y="612">
Bishop</text>
<rect fill="#000000" height="1" stroke="#000000" stroke-width="1" width="394" x="1790" y="622"/>
<rect fill="#000000" height="1" stroke="#000000" stroke-width="1" width="394" x="1790" y="643"/>
<text font-family="Dialog" font-size="12" x="1794" y="658">
Bishop() : void</text>
<text font-family="Dialog" font-size="12" x="1794" y="675">
Bishop(boolean,char) : void</text>
<text font-family="Dialog" font-size="12" x="1794" y="692">
posiblesMovimientos(Problema,Coordenada) : Arraylist&lt;Coordenada&gt;</text>
<rect fill="#ffffff" height="105" stroke="#ffffff" stroke-width="1" width="394" x="2606" y="598"/>
<rect fill="none" height="105" stroke="#000000" stroke-width="1" width="394" x="2606" y="598"/>
<text font-family="Dialog" font-size="12" x="2785" y="612">
Knight</text>
<rect fill="#000000" height="1" stroke="#000000" stroke-width="1" width="394" x="2606" y="622"/>
<rect fill="#000000" height="1" stroke="#000000" stroke-width="1" width="394" x="2606" y="643"/>
<text font-family="Dialog" font-size="12" x="2610" y="658">
Knight() : void</text>
<text font-family="Dialog" font-size="12" x="2610" y="675">
Knight(boolean,char) : void</text>
<text font-family="Dialog" font-size="12" x="2610" y="692">
posiblesMovimientos(Problema,Coordenada) : Arraylist&lt;Coordenada&gt;</text>
<rect fill="#ffffff" height="105" stroke="#ffffff" stroke-width="1" width="394" x="2198" y="598"/>
<rect fill="none" height="105" stroke="#000000" stroke-width="1" width="394" x="2198" y="598"/>
<text font-family="Dialog" font-size="12" x="2380" y="612">
Rook</text>
<rect fill="#000000" height="1" stroke="#000000" stroke-width="1" width="394" x="2198" y="622"/>
<rect fill="#000000" height="1" stroke="#000000" stroke-width="1" width="394" x="2198" y="643"/>
<text font-family="Dialog" font-size="12" x="2202" y="658">
Rook()</text>
<text font-family="Dialog" font-size="12" x="2202" y="675">
Rook(boolean,char)</text>
<text font-family="Dialog" font-size="12" x="2202" y="692">
posiblesMovimientos(Problema,Coordenada) : Arraylist&lt;Coordenada&gt;</text>
<polyline fill="none" points="798,118 328,118" stroke="#000000" stroke-width="1"/>
<polygon fill="#000000" points="798,118 788,123 778,118 788,113" stroke="#000000" stroke-width="1"/>
<polygon fill="none" points="798,118 788,123 778,118 788,113" stroke="#000000" stroke-width="1"/>
<text font-family="Dialog" font-size="12" x="545" y="112">
Juega</text>
<text font-family="Dialog" font-size="12" x="339" y="113">
2</text>
<polyline fill="none" points="893,582 1702,543" stroke="#000000" stroke-width="1"/>
<polygon fill="#000000" points="893,582 902,576 913,582 903,586" stroke="#000000" stroke-width="1"/>
<polygon fill="none" points="893,582 902,576 913,582 903,586" stroke="#000000" stroke-width="1"/>
<text font-family="Dialog" font-size="12" x="1274" y="555">
tiene</text>
<text font-family="Dialog" font-size="12" x="1672" y="537">
2..32</text>
<polyline fill="none" points="798,506 798,582" stroke="#000000" stroke-width="1"/>
<polygon fill="#000000" points="798,506 803,516 798,526 793,516" stroke="#000000" stroke-width="1"/>
<polygon fill="none" points="798,506 803,516 798,526 793,516" stroke="#000000" stroke-width="1"/>
<text font-family="Dialog" font-size="12" x="811" y="575">
1</text>
<rect fill="#ffffff" height="184" stroke="#ffffff" stroke-width="1" width="278" x="1110" y="758"/>
<rect fill="none" height="184" stroke="#000000" stroke-width="1" width="278" x="1110" y="758"/>
<text font-family="Dialog" font-size="12" x="1226" y="772">
Ranking</text>
<rect fill="#000000" height="1" stroke="#000000" stroke-width="1" width="278" x="1110" y="782"/>
<text font-family="Dialog" font-size="12" x="1114" y="797">
HashMap&lt;String,double&gt;</text>
<rect fill="#000000" height="1" stroke="#000000" stroke-width="1" width="278" x="1110" y="819"/>
<text font-family="Dialog" font-size="12" x="1114" y="834">
Ranking() : void</text>
<text font-family="Dialog" font-size="12" x="1114" y="851">
SetActualizar() : void</text>
<text font-family="Dialog" font-size="12" x="1114" y="868">
getClasificacion() : void</text>
<text font-family="Dialog" font-size="12" x="1114" y="885">
existeix(String) : Boolean</text>
<text font-family="Dialog" font-size="12" x="1114" y="902">
eliminarUsuario(Usuario) : void</text>
<text font-family="Dialog" font-size="12" x="1114" y="919">
setElemento(string,double) : void</text>
<polyline fill="none" points="1367,598 1846,598 1846,543" stroke="#333399" stroke-width="1"/>
<polygon fill="#ffffff" points="1846,543 1853,555 1839,555" stroke="#ffffff" stroke-width="1"/>
<polygon fill="none" points="1846,543 1853,555 1839,555" stroke="#333399" stroke-width="1"/>
<polyline fill="none" points="1775,598 1846,598 1846,543" stroke="#333399" stroke-width="1"/>
<polygon fill="#ffffff" points="1846,543 1853,555 1839,555" stroke="#ffffff" stroke-width="1"/>
<polygon fill="none" points="1846,543 1853,555 1839,555" stroke="#333399" stroke-width="1"/>
<polyline fill="none" points="3014,598 1846,598 1846,543" stroke="#333399" stroke-width="1"/>
<polygon fill="#ffffff" points="1846,543 1853,555 1839,555" stroke="#ffffff" stroke-width="1"/>
<polygon fill="none" points="1846,543 1853,555 1839,555" stroke="#333399" stroke-width="1"/>
<polyline fill="none" points="2198,598 1846,598 1846,543" stroke="#333399" stroke-width="1"/>
<polygon fill="#ffffff" points="1846,543 1853,555 1839,555" stroke="#ffffff" stroke-width="1"/>
<polygon fill="none" points="1846,543 1853,555 1839,555" stroke="#333399" stroke-width="1"/>
<polyline fill="none" points="183,222 222,222 222,181" stroke="#333399" stroke-width="1"/>
<polygon fill="#ffffff" points="222,181 229,193 215,193" stroke="#ffffff" stroke-width="1"/>
<polygon fill="none" points="222,181 229,193 215,193" stroke="#333399" stroke-width="1"/>
<polyline fill="none" points="278,222 222,222 222,181" stroke="#333399" stroke-width="1"/>
<polygon fill="#ffffff" points="222,181 229,193 215,193" stroke="#ffffff" stroke-width="1"/>
<polygon fill="none" points="222,181 229,193 215,193" stroke="#333399" stroke-width="1"/>
<polyline fill="none" points="1110,758 893,758" stroke="#000000" stroke-width="1"/>
<text font-family="Dialog" font-size="12" x="958" y="751">
per a</text>
<text font-family="Dialog" font-size="12" x="1086" y="753">
0..*</text>
<text font-family="Dialog" font-size="12" x="904" y="753">
1</text>
<rect fill="#ffffff" height="180" stroke="#ffffff" stroke-width="1" width="255" x="118" y="870"/>
<rect fill="none" height="180" stroke="#000000" stroke-width="1" width="255" x="118" y="870"/>
<text font-family="Dialog" font-size="12" x="223" y="884">
Minimax</text>
<rect fill="#000000" height="1" stroke="#000000" stroke-width="1" width="255" x="118" y="894"/>
<rect fill="#000000" height="1" stroke="#000000" stroke-width="1" width="255" x="118" y="918"/>
<text font-family="Dialog" font-size="12" x="122" y="933">
min(Problema,int,boolean) : int</text>
<text font-family="Dialog" font-size="12" x="122" y="950">
decisionMiniMax(Problema,int,boolean) : Pair</text>
<text font-family="Dialog" font-size="12" x="122" y="967">
evaluationBoard(Problema) : int</text>
<text font-family="Dialog" font-size="12" x="122" y="984">
getPieceValue(Ficha,int,int) : int</text>
<text font-family="Dialog" font-size="12" x="122" y="1001">
getAbsoluteValue(Ficha,int,int) : int</text>
<text font-family="Dialog" font-size="12" x="122" y="1018">
max(Problema,int,Boolean) : int</text>
<text font-family="Dialog" font-size="12" x="122" y="1035">
Minimax() : void</text>
<rect fill="#ffffff" height="232" stroke="#ffffff" stroke-width="1" width="200" x="1190" y="86"/>
<rect fill="none" height="232" stroke="#000000" stroke-width="1" width="200" x="1190" y="86"/>
<text font-family="Dialog" font-size="12" x="1255" y="100">
Coordenada</text>
<rect fill="#000000" height="1" stroke="#000000" stroke-width="1" width="200" x="1190" y="110"/>
<text font-family="Dialog" font-size="12" x="1194" y="125">
x : int</text>
<text font-family="Dialog" font-size="12" x="1194" y="142">
y : int</text>
<rect fill="#000000" height="1" stroke="#000000" stroke-width="1" width="200" x="1190" y="162"/>
<text font-family="Dialog" font-size="12" x="1194" y="177">
Coordenada() : void</text>
<text font-family="Dialog" font-size="12" x="1194" y="194">
Coordena(int,int) : void</text>
<text font-family="Dialog" font-size="12" x="1194" y="211">
setX(int) : void</text>
<text font-family="Dialog" font-size="12" x="1194" y="228">
setY(int) : void</text>
<text font-family="Dialog" font-size="12" x="1194" y="245">
getX() : void</text>
<text font-family="Dialog" font-size="12" x="1194" y="262">
printXY() : void</text>
<text font-family="Dialog" font-size="12" x="1194" y="279">
StringToCoord(string) : void</text>
<text font-family="Dialog" font-size="12" x="1194" y="296">
coordToString() : string</text>
<polyline fill="none" points="2606,598 1846,598 1846,543" stroke="#333399" stroke-width="1"/>
<polygon fill="#ffffff" points="1846,543 1853,555 1839,555" stroke="#ffffff" stroke-width="1"/>
<polygon fill="none" points="1846,543 1853,555 1839,555" stroke="#333399" stroke-width="1"/>
<polyline fill="none" points="1846,598 1846,543" stroke="#333399" stroke-width="1"/>
<polygon fill="#ffffff" points="1846,543 1853,555 1839,555" stroke="#ffffff" stroke-width="1"/>
<polygon fill="none" points="1846,543 1853,555 1839,555" stroke="#333399" stroke-width="1"/>
<polyline fill="none" points="54,389 54,766 638,766" stroke="#000000" stroke-width="1"/>
<text font-family="Dialog" font-size="12" x="159" y="727">
crea</text>
<text font-family="Dialog" font-size="12" x="67" y="416">
1</text>
<text font-family="Dialog" font-size="12" x="614" y="761">
0..*</text>
<rect fill="#ffffff" height="128" stroke="#ffffff" stroke-width="1" width="170" x="150" y="462"/>
<rect fill="none" height="128" stroke="#000000" stroke-width="1" width="170" x="150" y="462"/>
<text font-family="Dialog" font-size="12" x="198" y="476">
MaquinaEasy</text>
<rect fill="#000000" height="1" stroke="#000000" stroke-width="1" width="170" x="150" y="486"/>
<rect fill="#000000" height="1" stroke="#000000" stroke-width="1" width="170" x="150" y="518"/>
<text font-family="Dialog" font-size="12" x="154" y="533">
MaquinaEasy() : void</text>
<text font-family="Dialog" font-size="12" x="154" y="550">
MaquinaEasy(Boolean,int)</text>
<text font-family="Dialog" font-size="12" x="154" y="567">
getNextMove(Problema) : Pair</text>
<rect fill="#ffffff" height="128" stroke="#ffffff" stroke-width="1" width="170" x="470" y="454"/>
<rect fill="none" height="128" stroke="#000000" stroke-width="1" width="170" x="470" y="454"/>
<text font-family="Dialog" font-size="12" x="518" y="468">
MaquinaHard</text>
<rect fill="#000000" height="1" stroke="#000000" stroke-width="1" width="170" x="470" y="478"/>
<rect fill="#000000" height="1" stroke="#000000" stroke-width="1" width="170" x="470" y="510"/>
<text font-family="Dialog" font-size="12" x="474" y="525">
MaquinaHard() : void</text>
<text font-family="Dialog" font-size="12" x="474" y="542">
MaquinaHard(Boolean,int)</text>
<text font-family="Dialog" font-size="12" x="474" y="559">
getNextMove(Problema) : Pair</text>
<polyline fill="none" points="319,462 446,462 358,462 358,365" stroke="#000000" stroke-width="1"/>
<polygon fill="#ffffff" points="358,365 365,377 351,377" stroke="#ffffff" stroke-width="1"/>
<polygon fill="none" points="358,365 365,377 351,377" stroke="#000000" stroke-width="1"/>
<polyline fill="none" points="470,462 358,462 358,365" stroke="#000000" stroke-width="1"/>
<polygon fill="#ffffff" points="358,365 365,377 351,377" stroke="#ffffff" stroke-width="1"/>
<polygon fill="none" points="358,365 365,377 351,377" stroke="#000000" stroke-width="1"/>
<polyline fill="none" points="222,589 222,870" stroke="#000000" stroke-width="1"/>
<text font-family="Dialog" font-size="12" x="235" y="616">
1</text>
<text font-family="Dialog" font-size="12" x="235" y="853">
1</text>
<rect fill="#ffffff" height="192" stroke="#ffffff" stroke-width="1" width="240" x="390" y="886"/>
<rect fill="none" height="192" stroke="#000000" stroke-width="1" width="240" x="390" y="886"/>
<text font-family="Dialog" font-size="12" x="459" y="900">
MinimaxAlphaBeta</text>
<rect fill="#000000" height="1" stroke="#000000" stroke-width="1" width="240" x="390" y="910"/>
<rect fill="#000000" height="1" stroke="#000000" stroke-width="1" width="240" x="390" y="940"/>
<text font-family="Dialog" font-size="12" x="394" y="955">
min(Problema,int,boolean) : int</text>
<text font-family="Dialog" font-size="12" x="394" y="972">
max(Problema,int,Boolean) : int</text>
<text font-family="Dialog" font-size="12" x="394" y="989">
decisioMinMax(Problema,int,boolean) : int</text>
<text font-family="Dialog" font-size="12" x="394" y="1006">
evaluationBoard(Problema) : int</text>
<text font-family="Dialog" font-size="12" x="394" y="1023">
getPieceValue(Ficha,int,int) : int</text>
<text font-family="Dialog" font-size="12" x="394" y="1040">
getAbsoluteValue(Ficha,int,int) : int</text>
<text font-family="Dialog" font-size="12" x="394" y="1057">
MinimaxAlphaBeta() : void</text>
<polyline fill="none" points="550,581 550,886" stroke="#000000" stroke-width="1"/>
<text font-family="Dialog" font-size="12" x="563" y="608">
1</text>
<text font-family="Dialog" font-size="12" x="563" y="869">
1</text>
<rect fill="#ffffff" height="200" stroke="#ffffff" stroke-width="1" width="312" x="1110" y="1070"/>
<rect fill="none" height="200" stroke="#000000" stroke-width="1" width="312" x="1110" y="1070"/>
<text font-family="Dialog" font-size="12" x="1230" y="1084">
MinimaxPuro</text>
<rect fill="#000000" height="1" stroke="#000000" stroke-width="1" width="312" x="1110" y="1094"/>
<rect fill="#000000" height="1" stroke="#000000" stroke-width="1" width="312" x="1110" y="1162"/>
<text font-family="Dialog" font-size="12" x="1114" y="1177">
min(Problema,int,boolean) : int</text>
<text font-family="Dialog" font-size="12" x="1114" y="1194">
max(Problema,int,boolean) : int</text>
<text font-family="Dialog" font-size="12" x="1114" y="1211">
decision(problema,int,boolean) : int</text>
<polyline fill="none" points="893,1086 1110,1086" stroke="#000000" stroke-width="1"/>
<text font-family="Dialog" font-size="12" x="957" y="1066">
Validar</text>
<text font-family="Dialog" font-size="12" x="904" y="1081">
1</text>
<text font-family="Dialog" font-size="12" x="1091" y="1081">
1</text>
</svg>
